# xmcd
#
# Track frame offsets: 
#        150
#        15545
#        32229
#        45855
#        61810
#        77744
#        92467
#        109365
#        123051
#        136629
#        154227
#        166122
#        181983
#        196882
#
# Disc length: 2889 seconds
#
# Revision: 0
# Processed by: cddbd v1.5.2PL0 Copyright (c) Steve Scherf et al.
# Submitted via: ExactAudioCopy v0.99pb4
#
DISCID=9e0b470e
DTITLE=Mark DuFresne - Been Watchin You
DYEAR=2009
DGENRE=Blues
TTITLE0=Wailin
TTITLE1=Thirty-Three Ways
TTITLE2=Fly On the Wall
TTITLE3=Nature Will Eat You
TTITLE4=The Devil Gets His Due
TTITLE5=Salt Mines
TTITLE6=Bull Jive
TTITLE7=Laughed More Than We Cried
TTITLE8=Little Lady
TTITLE9=Just Enough
TTITLE10=Sinners Walk The Line
TTITLE11=What Do You Believe
TTITLE12=When I Been Drinkin
TTITLE13=You Never Asked
EXTD=
EXTT0=
EXTT1=
EXTT2=
EXTT3=
EXTT4=
EXTT5=
EXTT6=
EXTT7=
EXTT8=
EXTT9=
EXTT10=
EXTT11=
EXTT12=
EXTT13=
PLAYORDER=
